<?xml version="1.0" standalone="no"?>
<!DOCTYPE svg PUBLIC "-//W3C//DTD SVG 20010904//EN"
 "http://www.w3.org/TR/2001/REC-SVG-20010904/DTD/svg10.dtd">
<svg version="1.0" xmlns="http://www.w3.org/2000/svg"
 width="500.000000pt" height="500.000000pt" viewBox="0 0 500.000000 500.000000"
 preserveAspectRatio="xMidYMid meet">

<g transform="translate(0.000000,500.000000) scale(0.100000,-0.100000)"
fill="#000000" stroke="none">
<path d="M2478 4363 c12 -2 32 -2 45 0 12 2 2 4 -23 4 -25 0 -35 -2 -22 -4z"/>
<path d="M2226 4344 c-633 -98 -1166 -551 -1370 -1165 -60 -180 -77 -282 -83
-499 -5 -170 -2 -211 17 -323 21 -126 91 -371 110 -382 5 -3 -5 32 -21 77 -39
107 -75 258 -90 381 -17 139 -7 394 21 532 151 756 782 1321 1546 1384 91 8
94 8 29 9 -38 0 -110 -6 -159 -14z"/>
<path d="M2645 4350 c267 -24 572 -123 682 -221 26 -24 36 -30 20 -13 -15 17
-24 34 -20 39 5 4 3 5 -4 1 -6 -3 -15 -1 -19 5 -10 17 -156 83 -262 118 -129
43 -277 71 -396 76 l-101 4 100 -9z"/>
<path d="M3521 4154 c0 -11 3 -14 6 -6 3 7 2 16 -1 19 -3 4 -6 -2 -5 -13z"/>
<path d="M3721 4166 c2 -2 15 -9 29 -15 24 -11 24 -11 6 3 -16 13 -49 24 -35
12z"/>
<path d="M3603 4075 c0 -44 2 -61 4 -37 2 23 2 59 0 80 -2 20 -4 1 -4 -43z"/>
<path d="M3976 4130 c-27 -11 -54 -24 -59 -29 -6 -6 17 1 49 14 81 34 102 32
119 -7 8 -18 14 -26 15 -18 0 26 -30 60 -53 60 -12 -1 -44 -10 -71 -20z"/>
<path d="M3806 4113 c17 -16 36 -38 42 -48 11 -19 12 -19 34 5 21 22 21 22 1
6 -21 -17 -22 -17 -38 7 -9 14 -28 33 -43 42 -25 16 -24 15 4 -12z"/>
<path d="M3396 4118 c3 -5 10 -8 16 -6 6 2 28 -12 49 -32 40 -36 50 -53 25
-44 -8 3 -17 1 -20 -5 -4 -6 12 -16 36 -23 26 -7 57 -28 80 -52 21 -22 40 -37
43 -34 3 2 2 19 -1 37 -4 19 -10 28 -14 21 -5 -8 -17 -3 -38 15 -23 20 -32 35
-32 58 0 29 -1 30 -15 11 -9 -12 -14 -14 -15 -6 0 7 -4 11 -8 8 -5 -3 -24 9
-43 26 -31 29 -76 47 -63 26z"/>
<path d="M3512 4105 c0 -16 2 -22 5 -12 2 9 2 23 0 30 -3 6 -5 -1 -5 -18z"/>
<path d="M3390 4076 c0 -2 8 -10 18 -17 15 -13 16 -12 3 4 -13 16 -21 21 -21
13z"/>
<path d="M4101 4054 c0 -11 3 -14 6 -6 3 7 2 16 -1 19 -3 4 -6 -2 -5 -13z"/>
<path d="M3745 3990 c9 -16 18 -30 21 -30 2 0 -2 14 -11 30 -9 17 -18 30 -21
30 -2 0 2 -13 11 -30z"/>
<path d="M3980 3975 c-24 -24 -47 -42 -51 -39 -4 2 -10 -4 -14 -15 -3 -11 -12
-22 -20 -25 -17 -6 -21 9 -5 19 6 3 10 12 10 18 0 7 -4 6 -10 -3 -7 -11 -10
-7 -11 20 -2 30 -3 31 -6 8 -5 -32 -39 -39 -46 -10 -4 16 -5 16 -6 0 -1 -16
-13 -23 -34 -19 -5 1 -6 -3 -3 -8 11 -17 -19 -19 -39 -2 -19 16 -20 15 -3 -4
10 -13 15 -29 12 -43 l-6 -21 -42 21 c-22 11 -48 26 -56 33 -12 11 -19 11 -40
-1 l-25 -14 26 6 c18 4 37 -2 64 -20 21 -14 42 -26 46 -26 5 0 9 -4 9 -10 0
-5 -12 -10 -27 -11 -27 -1 -27 -1 6 -10 57 -17 61 -28 29 -78 -15 -25 -28 -53
-28 -63 0 -19 -19 -26 -90 -31 -34 -3 -28 -4 21 -5 l67 -2 6 -35 c4 -19 26
-63 49 -98 l43 -63 -40 -28 c-31 -22 -36 -30 -25 -38 11 -7 9 -9 -8 -5 -12 3
-43 -6 -70 -19 -26 -13 -41 -24 -32 -24 30 0 222 70 285 105 35 19 64 32 64
30 0 -3 -19 -18 -42 -35 -22 -16 -35 -30 -28 -30 6 0 30 14 52 32 36 28 40 29
34 10 -8 -25 18 -73 28 -50 3 7 3 -5 0 -27 -4 -35 -3 -37 6 -15 13 30 4 82
-10 59 -7 -10 -9 -8 -8 11 1 14 1 40 0 58 -2 28 -6 33 -22 30 -12 -2 -20 -7
-20 -12 2 -9 -19 -26 -32 -26 -5 0 -8 5 -8 11 0 5 5 7 10 4 6 -4 9 -3 8 2 -1
4 8 27 20 50 12 23 22 53 22 67 0 24 2 24 53 19 28 -2 62 -1 74 4 15 6 1 8
-48 8 -51 0 -72 4 -79 15 -7 11 -10 2 -10 -31 0 -34 -8 -58 -32 -95 -18 -27
-31 -52 -30 -57 1 -4 -1 -6 -5 -6 -22 4 -35 -2 -30 -14 7 -19 -34 -16 -65 5
-37 25 -98 150 -98 202 0 39 29 102 30 66 0 -13 1 -13 10 0 5 8 10 20 10 25 0
6 -5 3 -10 -5 -6 -9 -10 -10 -10 -3 0 21 18 24 30 6 9 -16 10 -15 5 5 -6 21
-5 22 14 10 11 -7 22 -19 25 -28 3 -13 4 -12 5 1 2 24 42 32 58 11 13 -15 13
-15 4 5 -19 37 9 41 39 5 15 -18 30 -29 33 -25 4 3 -3 18 -15 32 -13 14 -16
20 -6 13 11 -9 18 -10 23 -2 3 5 2 10 -2 10 -5 0 -18 7 -29 15 -18 14 -18 14
2 9 12 -3 25 -1 29 6 4 7 1 11 -6 9 -43 -5 -52 19 -22 55 10 12 11 15 3 9 -8
-7 -18 -13 -22 -13 -20 0 -3 27 54 86 33 35 59 64 57 64 -3 0 -25 -20 -49 -45z
m-167 -85 c-6 -22 -18 -26 -28 -10 -3 6 -1 10 4 10 6 0 11 7 11 16 0 8 4 13 9
10 5 -3 7 -15 4 -26z m47 20 c0 -5 -4 -10 -10 -10 -5 0 -10 5 -10 10 0 6 5 10
10 10 6 0 10 -4 10 -10z m10 -31 c0 -4 -11 -6 -25 -6 -13 0 -22 3 -20 8 6 9
45 8 45 -2z m39 -33 c0 -6 -3 -6 -6 2 -4 10 -8 10 -19 1 -15 -13 -17 -9 -8 15
5 13 9 14 20 5 8 -6 14 -17 13 -23z m-58 -16 c5 0 9 -4 9 -10 0 -5 -11 -10
-25 -10 -18 0 -23 4 -18 16 5 13 1 15 -18 10 -23 -7 -23 -6 -5 8 16 13 20 13
33 0 8 -7 19 -14 24 -14z m9 20 c0 -5 -4 -10 -10 -10 -5 0 -10 5 -10 10 0 6 5
10 10 10 6 0 10 -4 10 -10z m20 -40 c0 -11 -4 -20 -9 -20 -5 0 -7 9 -4 20 3
11 7 20 9 20 2 0 4 -9 4 -20z m-20 -30 c8 -5 11 -10 5 -10 -5 0 -17 5 -25 10
-8 5 -10 10 -5 10 6 0 17 -5 25 -10z m-30 -10 c8 -5 11 -10 5 -10 -5 0 -17 5
-25 10 -8 5 -10 10 -5 10 6 0 17 -5 25 -10z m15 -350 c4 -6 -1 -7 -11 -3 -13
5 -15 3 -9 -7 6 -10 4 -12 -8 -7 -10 3 -17 2 -17 -4 0 -6 -5 -7 -11 -3 -6 3
-15 1 -19 -6 -5 -7 -10 -8 -14 -2 -3 5 9 17 27 26 37 18 53 20 62 6z"/>
<path d="M4100 3939 c-12 -36 -24 -49 -65 -71 -52 -29 -56 -35 -9 -18 22 9 34
6 73 -17 25 -14 58 -39 73 -55 21 -23 25 -25 21 -8 -3 11 -32 38 -65 60 -33
22 -55 40 -49 40 6 0 10 3 9 8 -1 4 6 22 16 40 9 18 16 40 14 49 -2 8 -10 -4
-18 -28z"/>
<path d="M3675 3941 c19 -23 75 -66 75 -59 0 2 -21 21 -47 43 -27 21 -39 28
-28 16z"/>
<path d="M3544 3879 l-29 -31 31 18 c17 10 31 23 31 31 0 17 1 18 -33 -18z"/>
<path d="M3643 3803 c9 -2 25 -2 35 0 9 3 1 5 -18 5 -19 0 -27 -2 -17 -5z"/>
<path d="M3670 3764 c-36 -13 -58 -23 -49 -24 25 0 118 30 124 40 8 13 3 12
-75 -16z"/>
<path d="M3975 3760 c-3 -5 9 -16 27 -25 23 -11 28 -12 16 -2 -10 8 -15 17
-11 21 4 4 -1 4 -11 0 -14 -5 -17 -4 -12 4 4 7 5 12 2 12 -3 0 -7 -4 -11 -10z"/>
<path d="M3967 3690 c3 -11 9 -17 15 -14 5 3 4 12 -3 20 -16 19 -18 18 -12 -6z"/>
<path d="M3863 3640 c0 -36 2 -50 4 -32 2 17 2 47 0 65 -2 17 -4 3 -4 -33z"/>
<path d="M3530 3660 c8 -5 22 -9 30 -9 10 0 8 3 -5 9 -27 12 -43 12 -25 0z"/>
<path d="M3731 3654 c0 -11 3 -14 6 -6 3 7 2 16 -1 19 -3 4 -6 -2 -5 -13z"/>
<path d="M4011 3554 c0 -11 3 -14 6 -6 3 7 2 16 -1 19 -3 4 -6 -2 -5 -13z"/>
<path d="M4026 3485 c1 -17 14 -54 29 -83 15 -28 23 -57 19 -63 -4 -8 -3 -9 5
-5 6 4 9 16 6 27 -5 15 8 10 61 -22 63 -38 121 -58 108 -37 -3 5 -12 7 -19 4
-17 -6 -111 57 -107 73 1 7 -2 10 -7 7 -14 -9 -57 30 -71 64 -7 17 -11 32 -9
35 2 2 28 -4 57 -14 28 -10 52 -14 52 -9 0 4 8 8 18 9 12 0 9 3 -8 10 -14 5
-31 17 -37 26 -12 15 -13 15 -13 1 0 -9 9 -20 21 -23 11 -4 18 -9 16 -12 -3
-2 -19 3 -36 12 -18 9 -35 14 -39 11 -4 -3 -14 0 -22 6 -13 8 -13 9 1 5 9 -3
22 -2 29 3 7 5 -1 7 -21 7 -32 -1 -34 -3 -33 -32z"/>
<path d="M4178 3493 c7 -3 16 -2 19 1 4 3 -2 6 -13 5 -11 0 -14 -3 -6 -6z"/>
<path d="M4230 3480 c20 -13 33 -13 25 0 -3 6 -14 10 -23 10 -15 0 -15 -2 -2
-10z"/>
<path d="M4174 3448 c-4 -7 -3 -8 4 -4 7 4 12 4 12 -1 0 -4 30 -33 66 -63 72
-60 111 -110 58 -73 -49 33 -104 65 -104 59 0 -3 24 -20 54 -37 30 -18 53 -37
50 -41 -3 -4 4 -8 15 -8 28 0 26 12 -5 49 l-26 31 24 0 c23 1 58 21 58 34 0 3
-11 4 -24 0 -13 -3 -27 -1 -30 5 -4 6 -16 11 -27 11 -11 0 -17 5 -14 10 4 6
-8 10 -28 10 -19 0 -40 7 -47 15 -15 18 -26 19 -36 3z m176 -74 c2 -3 -13 -4
-34 -2 -21 1 -40 8 -43 15 -3 7 -10 10 -16 6 -5 -3 -7 -1 -4 4 6 10 82 -9 97
-23z"/>
<path d="M4096 3437 c3 -10 9 -15 12 -12 3 3 0 11 -7 18 -10 9 -11 8 -5 -6z"/>
<path d="M3870 3350 c-9 -6 -10 -10 -3 -10 6 0 15 5 18 10 8 12 4 12 -15 0z"/>
<path d="M3961 3344 c0 -11 3 -14 6 -6 3 7 2 16 -1 19 -3 4 -6 -2 -5 -13z"/>
<path d="M4043 3285 c0 -38 2 -53 4 -32 2 20 2 52 0 70 -2 17 -4 1 -4 -38z"/>
<path d="M1560 3330 c0 -5 18 -10 40 -10 47 0 95 -22 110 -49 13 -26 14 -1070
0 -1105 -12 -32 -58 -56 -110 -56 -22 0 -40 -4 -40 -10 0 -6 97 -10 270 -10
149 0 270 4 270 9 0 5 -28 11 -62 13 -51 4 -65 9 -85 32 -23 27 -23 28 -23
296 l0 270 218 3 217 2 -217 3 -218 2 0 300 0 300 168 0 c232 0 280 -16 326
-108 10 -19 20 -65 23 -103 3 -38 10 -72 14 -75 11 -6 12 121 3 229 l-7 77
-448 0 c-293 0 -449 -3 -449 -10z"/>
<path d="M3778 3333 c6 -2 18 -2 25 0 6 3 1 5 -13 5 -14 0 -19 -2 -12 -5z"/>
<path d="M4086 3300 c-8 -25 -12 -100 -4 -92 3 4 8 25 10 47 3 37 6 31 41 -75
21 -63 47 -160 58 -215 26 -131 36 -397 20 -531 -127 -1048 -1140 -1736 -2156
-1464 -214 57 -364 127 -455 213 -37 36 -47 43 -22 16 23 -25 39 -49 35 -54
-5 -4 -3 -5 3 -2 7 4 18 -1 25 -10 21 -25 201 -108 321 -147 195 -64 306 -81
538 -81 174 0 222 4 318 23 471 95 868 359 1130 752 123 185 223 441 262 675
19 114 22 154 17 325 -6 217 -23 319 -83 498 -41 123 -50 144 -58 122z"/>
<path d="M3962 3265 c0 -16 2 -22 5 -12 2 9 2 23 0 30 -3 6 -5 -1 -5 -18z"/>
<path d="M3971 3205 c-1 -16 11 -55 26 -86 l27 -57 29 55 c16 30 27 57 24 59
-2 2 -12 -14 -22 -36 -10 -22 -21 -40 -25 -40 -15 0 -44 56 -51 95 -6 35 -7
36 -8 10z"/>
<path d="M2207 2440 c-82 -71 -72 -247 16 -300 46 -29 60 -24 27 8 -22 22 -30
42 -35 86 -13 101 11 215 47 229 8 4 7 6 -4 6 -10 1 -33 -12 -51 -29z"/>
<path d="M2375 2434 c22 -33 25 -47 25 -131 0 -100 -14 -153 -47 -172 -11 -6
-13 -11 -5 -11 8 0 27 7 42 17 96 56 99 257 6 314 -45 27 -49 24 -21 -17z"/>
<path d="M2548 2458 c8 -8 12 -58 12 -159 0 -121 -3 -150 -16 -163 -14 -15
-12 -16 28 -16 l43 0 -3 155 c-2 98 1 162 8 175 10 19 8 20 -37 20 -36 0 -44
-3 -35 -12z"/>
<path d="M2858 2458 c8 -8 12 -59 12 -165 0 -134 -2 -153 -17 -162 -14 -8 -2
-10 47 -10 36 1 57 3 48 6 -16 4 -18 21 -18 168 0 121 3 165 13 168 6 3 -13 6
-42 6 -43 1 -52 -2 -43 -11z"/>
<path d="M3038 2463 c9 -3 12 -47 12 -168 0 -147 -2 -164 -17 -168 -10 -3 11
-5 47 -6 50 0 61 2 47 10 -15 9 -18 23 -17 82 1 40 1 114 1 165 l-1 92 -42 -1
c-24 0 -37 -3 -30 -6z"/>
<path d="M3191 2451 c18 -15 23 -28 23 -69 0 -55 -20 -88 -55 -94 -17 -3 -15
-10 21 -68 48 -79 73 -100 114 -99 17 0 25 3 17 6 -7 3 -35 39 -61 81 l-49 75
31 21 c37 25 51 65 36 107 -10 29 -52 59 -84 59 -13 0 -11 -4 7 -19z"/>
<path d="M3484 2457 c-3 -8 11 -61 32 -118 71 -203 70 -199 54 -209 -10 -7 4
-10 45 -10 40 0 55 3 45 9 -8 6 -42 83 -76 173 -59 156 -84 195 -100 155z"/>
<path d="M967 2190 c-15 -26 -27 -54 -27 -61 0 -8 9 5 20 29 10 23 24 42 29
42 6 0 19 -17 30 -37 28 -52 26 -36 -2 25 l-23 50 -27 -48z"/>
<path d="M2765 2158 c-6 -12 -21 -25 -35 -29 -21 -6 -19 -7 13 -8 35 -1 37 1
37 29 0 36 -2 37 -15 8z"/>
<path d="M3356 2134 c-18 -13 -17 -14 19 -14 21 0 36 1 34 3 -2 1 -11 8 -19
14 -11 9 -20 8 -34 -3z"/>
<path d="M923 2055 c0 -22 2 -30 4 -17 2 12 2 30 0 40 -3 9 -5 -1 -4 -23z"/>
<path d="M1031 2080 c0 -8 4 -24 9 -35 5 -13 9 -14 9 -5 0 8 -4 24 -9 35 -5
13 -9 14 -9 5z"/>
<path d="M963 2000 c0 -41 2 -58 4 -37 2 20 2 54 0 75 -2 20 -4 3 -4 -38z"/>
<path d="M675 2040 c-4 -6 5 -26 19 -44 24 -32 24 -34 5 -29 -22 6 -71 -15
-64 -28 3 -4 14 -5 24 -2 10 3 22 0 25 -6 4 -6 16 -11 27 -11 10 0 19 -4 19
-10 0 -5 11 -10 25 -10 14 0 24 -3 24 -7 -4 -22 3 -33 18 -33 15 0 14 2 -3 15
-23 17 -12 20 19 4 12 -6 -12 23 -53 65 -76 77 -83 93 -27 55 31 -20 31 -20
-3 9 l-34 30 24 5 c21 4 20 4 -7 6 -17 0 -35 -4 -38 -9z m42 -86 c12 -3 24
-12 26 -19 4 -9 -2 -10 -29 0 -57 19 -55 34 3 19z"/>
<path d="M768 2023 c7 -3 16 -2 19 1 4 3 -2 6 -13 5 -11 0 -14 -3 -6 -6z"/>
<path d="M1042 1990 c0 -14 2 -19 5 -12 2 6 2 18 0 25 -3 6 -5 1 -5 -13z"/>
<path d="M852 1977 c15 -14 25 -27 23 -29 -2 -2 5 -4 16 -5 27 -2 12 16 -33
40 l-33 19 27 -25z"/>
<path d="M770 1976 c0 -2 14 -14 30 -26 17 -12 30 -19 30 -16 0 2 -13 14 -30
26 -16 12 -30 19 -30 16z"/>
<path d="M921 1965 c-1 -12 -7 -27 -13 -34 -10 -10 -10 -12 -1 -7 8 4 20 -9
34 -36 12 -24 24 -38 26 -31 2 6 -3 27 -13 45 -9 18 -20 44 -25 58 -6 21 -7
22 -8 5z"/>
<path d="M1233 1963 c9 -2 25 -2 35 0 9 3 1 5 -18 5 -19 0 -27 -2 -17 -5z"/>
<path d="M1310 1950 c-14 -4 -54 -16 -90 -26 -36 -9 -94 -30 -129 -46 -71 -31
-85 -32 -40 -3 16 11 29 24 29 28 0 9 -60 -30 -73 -48 -4 -5 -5 10 -1 35 5 43
5 44 -11 25 -16 -19 -16 -19 -11 10 5 21 4 24 -2 11 -9 -21 -7 -111 3 -127 4
-5 10 -7 15 -4 4 3 15 2 23 -1 14 -5 13 -10 -4 -37 -10 -18 -19 -39 -19 -47 1
-8 8 1 16 20 8 19 26 48 39 66 13 17 21 35 17 39 -4 5 1 5 10 2 18 -6 43 15
31 27 -4 4 8 0 27 -8 42 -17 84 -73 106 -142 19 -59 14 -110 -16 -146 -17 -21
-19 -21 -25 -5 -7 17 -8 17 -20 0 -11 -15 -17 -15 -39 -5 -18 8 -26 8 -26 1 0
-6 -7 -9 -15 -5 -9 3 -15 0 -15 -10 0 -39 -51 15 -76 82 -8 21 -13 28 -11 14
3 -14 8 -34 13 -45 7 -18 6 -19 -12 -5 -18 14 -18 14 -2 -6 14 -16 15 -23 5
-34 -7 -8 -8 -11 -1 -7 7 4 14 0 18 -8 3 -8 0 -15 -6 -15 -6 0 -1 -9 11 -19
17 -15 21 -26 16 -42 -5 -14 -4 -19 4 -15 22 14 10 -14 -21 -51 -18 -21 -26
-32 -17 -26 9 7 19 10 22 7 3 -4 12 5 18 20 7 14 16 26 21 26 4 0 8 9 8 19 0
11 5 23 10 26 6 3 10 0 10 -8 0 -8 7 -17 15 -21 18 -7 20 5 3 22 -7 7 -8 12
-2 12 5 0 15 -9 21 -20 15 -23 1 -35 -24 -21 -15 7 -21 4 -30 -16 -7 -14 -10
-23 -6 -19 3 3 12 1 20 -5 10 -9 13 -8 13 5 0 9 5 16 10 16 6 0 9 -3 8 -7 -2
-5 2 -9 7 -10 6 -2 10 2 10 7 0 6 5 9 10 8 6 -2 9 -7 7 -12 -2 -5 1 -12 6 -15
5 -3 21 -30 36 -58 14 -29 29 -53 31 -53 3 0 -8 27 -25 60 -33 66 -32 93 3 63
l22 -18 -19 23 c-23 26 -11 29 19 5 12 -10 6 -3 -13 15 -18 19 -30 37 -26 40
4 4 9 1 11 -6 3 -6 9 -10 13 -7 15 9 89 -43 105 -74 9 -19 16 -62 17 -113 l2
-83 3 79 4 79 29 -28 c27 -26 30 -36 32 -94 1 -53 2 -57 5 -21 5 50 23 80 24
39 0 -21 1 -21 8 -5 6 17 10 16 33 -13 15 -17 30 -31 34 -31 5 0 -12 20 -36
45 -42 42 -48 64 -8 28 12 -10 18 -12 18 -4 0 7 5 9 12 5 7 -4 8 -3 4 5 -4 6
-12 9 -17 6 -5 -4 -9 -2 -9 4 0 5 -19 16 -42 24 -24 7 -43 19 -43 26 0 16 -35
42 -46 35 -5 -3 -6 2 -3 10 4 10 1 16 -7 16 -11 0 -11 3 1 10 12 8 12 10 1 10
-18 0 -99 51 -105 66 -2 6 8 9 28 8 17 -2 23 -1 14 2 -10 3 -18 10 -18 15 0 5
-10 9 -22 9 -22 1 -22 1 -3 12 11 7 43 17 70 24 33 8 41 13 24 13 -15 1 -46
-6 -69 -14 -23 -8 -44 -15 -46 -15 -2 0 10 21 26 47 17 26 30 53 30 59 0 9 20
14 58 17 l57 3 -56 2 -57 2 -7 38 c-7 40 -50 125 -72 143 -10 9 -5 17 27 40
22 16 45 29 52 29 9 0 8 4 -2 11 -12 9 -11 10 7 6 13 -3 26 -1 29 4 3 5 16 9
29 9 13 0 27 5 30 10 7 12 -19 12 -55 0z m-79 -50 c-13 -11 -29 -20 -37 -20
-8 0 -14 -4 -14 -9 0 -11 -38 -2 -46 11 -4 6 2 7 16 3 16 -5 20 -4 15 5 -5 9
-1 10 15 5 16 -5 20 -4 15 5 -5 9 -1 10 15 5 15 -5 20 -4 16 4 -4 6 0 11 11
11 16 -1 15 -3 -6 -20z m-173 -72 c-6 -16 -38 -23 -38 -9 0 6 7 7 17 4 11 -4
14 -3 9 5 -4 7 -2 12 4 12 7 0 10 -6 8 -12z m-17 -275 c13 -16 12 -17 -3 -4
-10 7 -18 15 -18 17 0 8 8 3 21 -13z m164 7 c3 -5 -1 -10 -10 -10 -9 0 -13 5
-10 10 3 6 8 10 10 10 2 0 7 -4 10 -10z m-61 -23 c-3 -9 -12 -13 -20 -10 -8 3
-14 0 -14 -6 0 -11 13 -15 36 -12 6 1 12 -10 12 -23 0 -21 -3 -23 -14 -11 -8
7 -22 16 -32 19 -19 6 -27 36 -10 36 5 0 6 5 2 11 -4 8 0 9 15 4 14 -4 21 -2
21 6 0 7 2 10 5 7 3 -3 3 -12 -1 -21z m-89 -17 c3 -6 -1 -7 -9 -4 -18 7 -21
14 -7 14 6 0 13 -4 16 -10z m151 -28 c-4 -3 -11 0 -16 8 -15 24 -11 33 6 15 9
-9 13 -19 10 -23z m-18 -60 c2 -7 -2 -10 -12 -6 -9 3 -16 11 -16 16 0 13 23 5
28 -10z"/>
<path d="M660 1926 c0 -2 8 -10 18 -17 15 -13 16 -12 3 4 -13 16 -21 21 -21
13z"/>
<path d="M840 1926 c0 -2 8 -10 18 -17 15 -13 16 -12 3 4 -13 16 -21 21 -21
13z"/>
<path d="M851 1862 c-7 -2 6 -13 29 -23 23 -10 46 -17 50 -14 5 3 12 0 16 -6
4 -7 3 -9 -2 -6 -6 3 -16 1 -24 -4 -11 -6 -5 -8 18 -4 29 5 32 3 33 -22 0 -16
3 -22 6 -15 8 21 -6 62 -23 62 -8 0 -12 4 -9 10 3 6 -1 7 -9 4 -8 -3 -28 1
-44 8 -15 8 -34 12 -41 10z"/>
<path d="M750 1850 c20 -13 33 -13 25 0 -3 6 -14 10 -23 10 -15 0 -15 -2 -2
-10z"/>
<path d="M800 1840 c-8 -5 -10 -10 -5 -10 6 0 17 5 25 10 8 5 11 10 5 10 -5 0
-17 -5 -25 -10z"/>
<path d="M870 1810 c8 -5 20 -10 25 -10 6 0 3 5 -5 10 -8 5 -19 10 -25 10 -5
0 -3 -5 5 -10z"/>
<path d="M868 1693 c6 -2 18 -2 25 0 6 3 1 5 -13 5 -14 0 -19 -2 -12 -5z"/>
<path d="M931 1696 c11 -9 69 -15 64 -6 -3 6 -20 10 -37 10 -17 0 -29 -2 -27
-4z"/>
<path d="M1113 1650 c0 -25 2 -35 4 -22 2 12 2 32 0 45 -2 12 -4 2 -4 -23z"/>
<path d="M1221 1603 c-10 -26 -10 -27 4 -9 8 11 15 23 15 28 0 15 -7 8 -19
-19z"/>
<path d="M1461 1613 c7 -12 15 -20 18 -17 3 2 -3 12 -13 22 -17 16 -18 16 -5
-5z"/>
<path d="M790 1583 c0 -18 47 -69 86 -93 l34 -22 -25 -30 c-14 -17 -25 -41
-24 -56 1 -20 2 -22 6 -7 8 40 28 67 63 86 19 11 27 18 17 15 -27 -8 -120 55
-144 98 -7 11 -12 16 -13 9z"/>
<path d="M983 1575 c0 -8 4 -12 9 -9 5 3 6 10 3 15 -9 13 -12 11 -12 -6z"/>
<path d="M1328 1503 c12 -2 30 -2 40 0 9 3 -1 5 -23 4 -22 0 -30 -2 -17 -4z"/>
<path d="M1398 1427 c-7 -8 -20 -12 -28 -10 -13 4 -13 3 -1 -5 10 -7 21 -6 38
5 13 8 23 17 23 19 0 9 -19 3 -32 -9z"/>
<path d="M954 1338 l-29 -33 33 29 c30 28 37 36 29 36 -2 0 -16 -15 -33 -32z"/>
<path d="M862 1280 c0 -14 2 -19 5 -12 2 6 2 18 0 25 -3 6 -5 1 -5 -13z"/>
<path d="M1095 1270 c3 -5 8 -10 11 -10 2 0 4 5 4 10 0 6 -5 10 -11 10 -5 0
-7 -4 -4 -10z"/>
<path d="M871 1238 c-2 -31 28 -49 67 -42 41 7 122 40 122 49 0 3 -12 -1 -27
-8 -39 -20 -122 -39 -134 -31 -6 3 -14 16 -19 28 -7 16 -9 17 -9 4z"/>
<path d="M1140 1215 c19 -19 36 -35 39 -35 3 0 -10 16 -29 35 -19 19 -36 35
-39 35 -3 0 10 -16 29 -35z"/>
<path d="M1204 1166 c11 -9 24 -16 30 -16 12 0 7 5 -24 19 -24 11 -24 11 -6
-3z"/>
</g>
</svg>
