<svg version="1.1" id="Layer_1" xmlns="http://www.w3.org/2000/svg" xmlns:xlink="http://www.w3.org/1999/xlink" x="0px" y="0px"
	 width="744px" height="744px" viewBox="100 -10 296 496" enable-background="new 0 0 496 496" xml:space="preserve">
<path fill="#000000" opacity="1.000000" stroke="none" 
	d="
M241.312164,173.090698 
	C241.044342,182.246582 243.246643,190.937714 241.667862,200.598282 
	C238.799500,198.425629 238.888336,196.106247 238.760117,193.934143 
	C237.799454,177.659988 231.485016,171.548187 215.238708,171.354065 
	C207.574936,171.262482 199.908386,171.395096 192.244781,171.296021 
	C188.925781,171.253128 187.597000,172.278427 187.652969,175.957504 
	C187.901337,192.281647 187.997955,208.614059 187.719864,224.936157 
	C187.648499,229.124481 188.963821,230.034271 192.750336,229.971970 
	C203.578171,229.793808 214.411133,229.875488 225.241425,229.950623 
	C227.095032,229.963470 229.330688,229.218567 230.592438,231.585785 
	C229.331100,233.953644 227.079315,233.125763 225.249176,233.140594 
	C214.918976,233.224243 204.578598,233.430756 194.260635,233.063492 
	C189.062668,232.878479 187.715698,234.786545 187.790222,239.703247 
	C187.982010,252.358643 187.663834,265.021362 187.586395,277.681396 
	C187.523895,287.898560 190.567551,291.108154 200.747589,291.716980 
	C202.021942,291.793182 203.452240,291.450562 204.365936,292.795135 
	C201.670929,294.702209 156.609543,295.264709 150.499786,293.450684 
	C151.031754,291.001526 153.061066,291.849030 154.496933,291.731964 
	C162.627182,291.068970 165.896622,288.203369 165.928955,280.316956 
	C166.062836,247.659241 166.038727,215.000381 165.918274,182.342499 
	C165.892166,175.262573 162.758942,172.267044 155.614212,171.410904 
	C153.863922,171.201172 151.951355,171.724594 150.417206,170.427292 
	C150.733871,168.275925 152.371719,168.727036 153.538422,168.725235 
	C181.365051,168.682281 209.191772,168.705948 237.018387,168.659775 
	C239.834396,168.655106 241.548874,169.483093 241.312164,173.090698 
z"/>
<path fill="#000000" opacity="1.000000" stroke="none" 
	d="
M301.570984,257.384888 
	C306.861938,257.039337 311.816772,256.644501 316.817841,257.467529 
	C321.402496,258.221985 325.150024,259.596558 326.540894,264.616852 
	C327.933899,269.644958 325.606812,272.924042 321.801331,275.651978 
	C321.406311,275.935150 321.111084,276.357605 320.423584,277.077942 
	C322.446808,281.483429 325.103546,285.686127 328.183533,289.531799 
	C330.970245,293.011261 334.046844,292.367493 335.658478,288.118835 
	C339.022644,279.249939 342.176117,270.301361 345.466156,261.403992 
	C346.135223,259.594635 346.476898,257.251617 349.186188,257.412598 
	C351.535980,257.552216 351.796173,259.705017 352.441101,261.345520 
	C354.329376,266.148743 355.999084,271.042297 358.015717,275.789490 
	C360.562958,281.785645 360.853180,289.226532 368.898346,292.138611 
	C369.503357,291.968719 369.368469,290.460022 370.299225,289.709656 
	C371.772430,290.270264 370.435547,292.033051 371.375763,292.948730 
	C375.817719,286.904633 373.589813,278.108612 366.829681,274.229645 
	C370.025024,272.250214 370.025024,272.250214 375.044281,280.108704 
	C378.421875,279.189758 381.871948,277.946899 385.563354,279.428772 
	C388.557678,280.630829 389.968750,282.280945 388.541351,285.527679 
	C387.940002,286.895538 387.613068,288.396210 386.919830,289.708954 
	C385.514069,292.371002 385.373016,294.393585 388.140228,296.569000 
	C390.882782,298.725067 392.198547,302.110016 390.908447,305.555878 
	C389.546356,309.194000 385.937714,308.632385 383.104767,308.218109 
	C379.542114,307.697144 376.294403,309.194672 372.564270,309.166107 
	C370.849274,312.459778 369.939667,316.428528 367.162903,319.450500 
	C363.712646,323.205505 360.793762,323.185333 358.788940,318.525757 
	C357.071960,314.535156 355.103546,313.453369 351.240814,315.485931 
	C349.296295,316.509155 347.027130,316.967651 345.130188,315.317383 
	C343.193756,313.632751 343.580841,311.447479 344.323944,309.303619 
	C345.158752,306.895416 345.771240,304.858307 343.077576,302.763672 
	C340.394470,300.677277 342.164551,297.120819 341.775940,293.996765 
	C337.662018,292.840393 333.499329,293.267181 329.428894,293.451843 
	C324.294403,293.684814 320.942719,291.533051 318.451324,287.194366 
	C316.522522,283.835480 315.144928,279.953888 310.533356,277.202026 
	C310.963013,283.054382 307.923676,288.513550 314.138062,292.902954 
	C309.219910,293.682190 304.888214,293.553345 300.286133,292.936279 
	C304.714844,288.629913 305.187408,265.087372 301.570984,257.384888 
M348.573883,280.394592 
	C339.306091,281.979584 338.216064,283.076019 338.242188,290.878815 
	C340.129791,292.597809 345.858887,290.592896 343.951050,296.048676 
	C342.353241,300.617920 344.802673,302.402802 348.310852,303.261810 
	C352.911957,304.388367 357.315125,303.542755 361.410828,300.541687 
	C357.961945,298.479675 354.158997,300.075867 349.840118,298.328369 
	C355.307373,297.020752 359.884399,298.612885 364.277679,296.946442 
	C361.157867,293.041168 356.833496,293.560120 351.482971,292.648834 
	C354.936279,291.497040 356.300049,290.052002 355.236725,287.800903 
	C353.858856,284.883789 354.399048,280.366333 348.573883,280.394592 
M314.851440,275.369354 
	C319.636658,272.821350 321.383606,265.636139 318.297211,261.382751 
	C316.805084,259.326416 314.731171,259.073669 312.508636,259.428040 
	C309.879944,259.847107 310.390594,262.023407 310.350861,263.768005 
	C310.286469,266.594391 310.383911,269.424133 310.347321,272.251617 
	C310.313385,274.872894 311.620422,275.858368 314.851440,275.369354 
M380.042206,284.509003 
	C380.299957,284.641998 380.572540,284.754974 380.802124,284.925842 
	C380.844788,284.957611 380.759674,285.264984 380.657318,285.372742 
	C377.491943,288.703888 372.611481,291.442596 376.669617,297.280518 
	C381.403961,295.906616 384.071869,292.455658 385.493866,287.989899 
	C386.091431,286.113251 387.914032,283.935059 385.531586,282.079315 
	C383.255554,280.306519 380.678040,280.100128 378.063171,281.451141 
	C376.870911,282.067139 375.431519,282.729156 376.167664,284.393829 
	C376.983978,286.239746 378.377991,285.073883 380.042206,284.509003 
M358.904388,313.121826 
	C359.126495,313.915955 359.241943,314.761200 359.592651,315.493744 
	C360.356689,317.089722 360.851379,319.334564 363.058380,319.180756 
	C365.209686,319.030823 366.766785,317.025726 367.030823,315.222717 
	C367.622650,311.181915 369.102844,306.903381 365.999359,302.963898 
	C364.578949,303.492554 364.835480,305.707153 363.192963,306.013092 
	C361.075165,303.088257 361.075165,303.088257 358.582336,306.291748 
	C359.336365,306.966766 360.901947,304.690216 361.133881,306.903381 
	C361.298126,308.470886 361.728241,310.140076 360.759216,311.527191 
	C359.553406,312.056213 359.969391,309.492310 358.445374,310.665894 
	C358.502930,311.253754 358.565887,311.896515 358.904388,313.121826 
M387.935913,299.693176 
	C386.724792,298.373260 385.652740,296.858398 383.639984,296.579712 
	C382.620575,300.861877 378.515106,298.063995 376.398010,299.819763 
	C376.092896,301.321381 375.787781,302.822968 375.484467,304.315735 
	C378.419952,305.917267 381.316742,306.915314 384.583160,306.654663 
	C389.307129,306.277771 390.081726,305.009308 387.935913,299.693176 
M346.622314,278.835175 
	C348.181976,278.698334 349.978027,279.516510 351.425446,277.372009 
	C350.052887,273.456848 348.605591,269.328400 346.699615,263.891693 
	C344.979645,268.386749 343.742554,271.573944 342.540497,274.774261 
	C341.326447,278.006531 342.866943,279.011658 346.622314,278.835175 
M354.498901,311.630432 
	C358.288940,309.791107 352.922638,307.773102 355.060364,305.933197 
	C353.635742,305.933197 352.575592,306.183411 351.701996,305.885864 
	C349.169281,305.023224 347.967438,306.572327 346.923004,308.331146 
	C346.145203,309.640991 345.637177,311.269226 346.552917,312.580566 
	C348.002686,314.656586 349.873932,312.884491 351.548340,312.691589 
	C352.347961,312.599426 353.109558,312.177460 354.498901,311.630432 
z"/>
<path fill="#000000" opacity="1.000000" stroke="none" 
	d="
M237.228119,258.367767 
	C245.367249,263.356415 246.621399,270.803345 245.634125,279.000977 
	C244.717392,286.613007 241.102264,292.000092 233.075897,293.835449 
	C222.298798,296.299774 214.435104,289.561066 213.336212,276.640839 
	C212.061920,261.658447 223.024185,253.062729 237.228119,258.367767 
M221.233765,267.801361 
	C219.699768,273.590332 220.262924,279.374634 221.512436,285.092712 
	C222.462570,289.440796 225.325470,292.489044 229.802734,292.356506 
	C233.969955,292.233185 236.685837,289.374603 237.578201,285.114594 
	C238.816437,279.203400 239.250641,273.292328 237.920578,267.320892 
	C236.589722,261.345947 233.854095,258.231018 229.511002,258.454071 
	C224.247849,258.724365 222.169693,262.332306 221.233765,267.801361 
z"/>
<path fill="#000000" opacity="1.000000" stroke="none" 
	d="
M277.777191,285.507111 
	C276.863922,293.352112 276.863983,293.337555 269.238831,293.307617 
	C263.289001,293.284241 257.338989,293.302887 251.033112,293.302887 
	C255.011261,287.917450 254.767975,262.292084 250.811859,257.613129 
	C255.203201,256.644989 259.379211,256.895782 264.552734,257.442566 
	C260.374939,260.452423 260.925995,264.280457 260.923065,267.958862 
	C260.918457,273.778198 260.834808,279.600250 260.989929,285.415649 
	C261.058319,287.979523 259.877686,291.317810 264.471954,291.724579 
	C270.881104,292.292053 274.378723,290.884796 275.554230,286.769501 
	C275.893494,285.581696 275.199646,284.073639 276.614166,283.204620 
	C277.738007,283.436676 277.686249,284.337006 277.777191,285.507111 
z"/>
<path fill="#000000" opacity="1.000000" stroke="none" 
	d="
M284.872162,282.860107 
	C284.874420,276.735443 284.904022,271.088379 284.868958,265.441650 
	C284.851685,262.664490 285.438293,259.611542 280.222961,258.226929 
	C285.968903,256.513092 289.931122,256.941223 294.002411,257.463440 
	C290.896912,265.309692 291.480713,289.025757 294.928802,293.028656 
	C290.689758,293.643158 286.611481,293.441071 281.778748,293.006317 
	C285.663208,290.244629 284.804199,286.676910 284.872162,282.860107 
z"/>
</svg>