<svg version="1.1" id="Layer_1" xmlns="http://www.w3.org/2000/svg" xmlns:xlink="http://www.w3.org/1999/xlink" x="0px" y="0px"
	 width="100%" viewBox="0 0 496 496" enable-background="new 0 0 496 496" xml:space="preserve">
<path fill="#111827" opacity="1.000000" stroke="none" 
	d="
M67.716370,303.178345 
	C70.412918,300.769653 66.325821,299.268219 68.078926,296.351440 
	C75.448021,293.054169 81.482681,298.782562 88.308998,302.241974 
	C64.156334,225.991577 76.840302,158.160110 138.108170,105.849098 
	C199.262894,53.634693 268.320984,51.267910 339.669891,86.617966 
	C339.669891,83.518631 339.510132,80.900482 339.706757,78.309380 
	C340.013947,74.261162 341.943176,73.286362 345.783295,74.825928 
	C353.557861,77.942841 355.285400,84.413811 355.350586,91.827690 
	C355.382477,95.454498 354.792450,99.337234 359.765137,100.974823 
	C361.337494,97.060883 360.488098,93.076393 360.622986,89.206848 
	C360.832489,83.197060 363.696930,80.948265 369.707855,82.165993 
	C376.852570,83.613396 382.552856,87.389580 387.532654,93.354927 
	C391.593567,90.022079 396.030579,87.598999 401.084534,86.290665 
	C408.400421,84.396790 410.311829,85.350510 412.025482,92.743301 
	C413.378448,98.579979 414.603149,104.469612 411.999664,110.294685 
	C411.071381,112.371628 412.176361,113.400223 413.702911,114.335442 
	C418.782837,117.447617 420.590576,122.601006 422.397705,127.860451 
	C423.816956,131.991013 422.202393,134.666931 418.815613,136.555023 
	C415.478058,138.415665 412.063965,140.142166 407.957825,139.516678 
	C406.386353,139.277283 404.636566,139.042786 403.155273,140.170868 
	C402.755066,145.334839 404.356934,147.443848 410.237549,148.126724 
	C421.249725,149.405502 431.887848,152.709808 439.450806,162.146072 
	C439.066284,164.977554 435.768005,164.980362 434.266113,166.924393 
	C434.647797,168.832123 437.054352,169.942642 436.338348,172.721069 
	C426.415710,176.982727 419.247253,169.285431 410.824738,165.947418 
	C438.789307,244.099777 427.761292,314.638336 364.102875,369.366577 
	C300.345337,424.180023 228.871216,424.670319 156.206009,385.053772 
	C154.923401,386.460999 155.826706,387.697723 156.085938,388.915222 
	C156.639099,391.513153 156.429245,394.056244 154.365891,395.834473 
	C152.075394,397.808441 149.813644,395.892578 147.957443,394.841217 
	C143.815063,392.494995 141.279739,389.002136 141.528229,383.864227 
	C141.680511,380.715576 141.669815,377.512329 141.249115,374.398895 
	C140.962250,372.276031 139.701706,370.399139 136.345108,369.812408 
	C136.345108,373.418762 136.381790,376.831085 136.337006,380.242340 
	C136.258820,386.198334 134.896103,387.462982 128.857330,387.370300 
	C122.142838,387.267273 117.205849,383.554108 113.007675,378.962891 
	C110.840263,376.592560 109.356255,376.270996 106.791321,378.054047 
	C103.013367,380.680328 98.488922,381.440552 94.066719,382.199646 
	C90.696144,382.778259 88.076492,381.580383 87.453636,377.836609 
	C86.890244,374.450287 84.985672,371.116730 86.548431,367.353180 
	C89.576363,368.482758 87.259972,371.695251 89.888916,373.240265 
	C92.500931,368.776184 99.309059,366.667297 96.552322,359.563995 
	C98.928032,357.015045 102.963425,357.040802 104.568817,353.587982 
	C95.893044,353.028534 91.461929,356.104858 87.378021,365.316071 
	C85.307236,363.098511 85.307236,363.098511 88.291885,355.679535 
	C82.571739,352.042053 79.643623,346.570190 78.469032,339.849060 
	C77.800362,336.022858 79.135208,333.739655 82.397263,332.241058 
	C85.595245,330.771942 88.935913,329.856659 92.480072,329.620880 
	C94.527596,329.484711 97.358543,330.900696 97.701408,326.936615 
	C98.041229,323.007721 95.902908,322.555389 92.701256,321.918213 
	C85.718666,320.528595 78.644905,318.926941 72.651070,314.822479 
	C69.305641,312.531555 66.464874,309.503693 63.545929,306.939056 
	C64.344940,304.636200 66.102951,304.225555 67.716370,303.178345 
M126.966301,372.253418 
	C126.566811,367.763184 123.970955,364.502838 120.961075,361.470428 
	C122.237648,365.706360 123.712334,369.832855 127.126244,373.716522 
	C127.291130,376.488373 130.031158,378.481232 129.731903,382.473236 
	C124.713829,377.808624 123.400436,371.735046 119.303726,366.418701 
	C118.401169,370.349487 118.906311,373.851898 116.646645,376.747681 
	C115.705727,375.900757 114.822769,375.105988 113.939812,374.311218 
	C115.818130,379.154724 119.592644,382.039978 123.980087,384.055450 
	C131.419327,387.472870 134.598785,385.360474 134.648209,377.248047 
	C134.660370,375.252380 134.751541,373.245941 134.588089,371.262451 
	C133.908310,363.013428 131.755997,359.956635 125.516495,358.148621 
	C127.913979,361.029602 131.621368,363.095367 131.782288,367.766998 
	C128.705109,367.239777 128.695358,363.996124 126.046234,362.799713 
	C127.806915,366.959595 130.344589,370.529541 129.950256,374.952667 
	C128.168381,375.120056 127.927078,373.577148 126.966301,372.253418 
M139.232147,362.322266 
	C138.962128,366.571075 142.382584,368.673462 145.161697,369.768768 
	C152.620544,372.708405 157.955765,378.043823 163.210831,383.627960 
	C165.529236,386.091522 168.208771,387.978394 171.180893,389.556580 
	C194.664658,402.026520 219.829208,408.638306 246.264343,409.307251 
	C264.734039,409.774658 283.100128,407.547150 300.907532,401.917023 
	C332.171478,392.032318 358.746277,374.944794 380.253967,350.210327 
	C406.756683,319.731476 420.512543,284.078461 422.632721,243.835220 
	C423.228638,232.524048 422.216248,221.277405 420.456268,210.160507 
	C418.748077,199.370834 415.840912,188.807465 411.587860,177.193085 
	C409.098541,184.148071 408.073792,190.486984 403.245972,194.922806 
	C395.535492,185.611099 396.259277,174.438583 395.753387,163.373077 
	C383.696838,169.862305 367.046997,171.445480 362.328705,166.549011 
	C367.999908,165.025162 372.784943,162.196259 377.226013,158.661942 
	C379.368011,156.957306 379.685913,155.493500 378.089417,153.235245 
	C375.298981,149.288162 372.704559,145.195984 371.571136,140.391144 
	C370.992798,137.939377 369.386108,137.338470 367.065308,137.619934 
	C362.868042,138.128983 358.766663,137.430557 354.808594,136.089081 
	C348.792023,134.049881 347.357330,130.663666 349.620667,124.324844 
	C351.675598,133.022156 355.348724,135.786758 364.476746,135.506424 
	C370.307526,135.327362 371.228546,134.361740 372.843719,126.561348 
	C368.379150,125.341568 364.103577,129.025192 358.976288,127.306458 
	C362.495819,124.216949 367.518494,125.788605 370.203217,122.247101 
	C366.217621,119.895729 362.059998,123.862244 357.477539,121.279968 
	C361.905273,119.560272 366.197693,119.117889 369.240631,115.653549 
	C366.520111,112.497673 363.810150,111.225967 359.416473,113.204025 
	C355.669983,114.890739 353.641113,118.265678 349.845428,121.340607 
	C351.269897,114.455269 356.102356,111.509720 360.060394,107.607483 
	C356.824127,105.179543 354.597015,101.791725 350.679871,100.787552 
	C345.653137,99.498924 341.465027,96.725250 338.002411,93.117462 
	C329.884155,84.658875 319.628204,80.098137 308.900208,76.236885 
	C295.221039,71.313446 281.172913,68.279793 266.664551,66.973625 
	C244.897629,65.013992 223.467621,66.815140 202.637680,73.126648 
	C158.049149,86.637032 124.107544,113.824371 101.066902,154.369095 
	C88.049896,177.275208 81.377457,202.172485 79.529472,228.311127 
	C78.523674,242.537430 79.944221,256.749969 82.659035,270.749908 
	C84.691277,281.229950 87.568855,291.507111 92.452271,302.370178 
	C92.064636,292.081421 93.877335,283.795105 100.694427,276.844727 
	C108.044968,287.000610 106.963844,297.947144 104.890778,310.400482 
	C110.010780,304.524323 115.976418,303.624084 121.902359,303.757874 
	C127.523888,303.884735 133.637878,301.738617 140.266373,306.375214 
	C132.271362,308.208282 126.171524,310.772064 121.506561,316.066650 
	C124.727875,321.770111 128.402252,327.011475 128.643661,333.923553 
	C130.049988,333.923553 131.181824,333.858002 132.303864,333.934998 
	C136.974213,334.255371 141.612137,334.870056 145.830536,337.036926 
	C150.671570,339.523651 151.876144,345.979980 148.124573,348.653625 
	C148.783539,341.378845 146.254883,338.428040 138.405777,337.312286 
	C129.553360,336.053894 127.867134,337.106598 126.286560,344.877014 
	C130.583450,345.737030 134.813736,342.437775 140.045715,344.702454 
	C136.613449,347.161621 132.354034,345.834961 129.826263,348.704285 
	C133.255936,350.771515 137.230301,348.430267 140.482956,350.825867 
	C135.687180,349.791718 132.955215,355.406799 126.882614,353.635773 
	C130.965210,357.125366 133.320953,360.194702 138.254730,358.266327 
	C142.012253,356.797760 144.212387,353.428253 148.251892,351.002197 
	C146.868561,356.639313 143.281708,359.265198 139.232147,362.322266 
M397.459747,143.824310 
	C399.779144,137.463821 397.387024,129.620361 392.435333,127.469070 
	C391.709778,129.741226 394.889343,131.056000 393.925232,133.611099 
	C390.971069,133.058945 390.998413,129.636963 388.070923,128.232864 
	C388.070923,134.281998 388.070923,140.005234 388.070923,145.728485 
	C385.436157,140.400131 388.376526,134.336594 384.917175,129.178848 
	C382.931396,132.501114 384.271545,137.003616 380.385742,139.267670 
	C380.961914,135.243805 382.391754,131.454727 382.129242,127.282288 
	C378.063904,128.637726 380.458679,134.595123 375.774902,135.069611 
	C375.525330,136.915421 377.081726,138.431778 376.621613,140.378098 
	C375.614258,144.639053 380.070374,153.572174 383.849335,155.188736 
	C385.568237,155.924057 387.057098,155.399277 388.582611,154.588211 
	C392.778503,152.357300 395.111176,148.572906 397.459747,143.824310 
M116.333885,337.416046 
	C117.007294,335.320496 116.686729,332.675140 119.797668,331.530853 
	C119.974174,335.558441 116.699318,338.905243 118.048775,343.866821 
	C120.193527,340.145844 122.152107,337.332001 123.512428,334.253784 
	C125.665825,329.380951 121.938042,319.207489 117.411919,316.407257 
	C115.740364,315.373047 114.323616,315.661469 112.734093,316.420563 
	C101.047546,322.001526 98.871521,335.182220 108.709221,345.085571 
	C107.645966,342.006836 106.825714,339.631744 105.923790,337.020172 
	C108.802116,336.923859 108.375275,340.534241 110.921074,340.215454 
	C112.949341,335.423248 109.915733,329.640808 113.505104,324.726135 
	C115.213387,327.879517 113.629913,330.556702 113.471947,333.281006 
	C113.310814,336.059692 112.715622,339.035736 115.035690,341.493683 
	C115.403450,340.218964 115.722435,339.113251 116.333885,337.416046 
M390.832123,101.998711 
	C395.279266,96.563522 395.279266,96.563522 400.437408,100.306007 
	C403.791382,98.856476 404.435181,94.575279 407.523163,92.612061 
	C407.812622,93.183144 407.957794,93.331291 407.945190,93.464516 
	C407.404327,99.182045 399.463989,102.322769 402.344818,109.387596 
	C402.480713,109.720833 400.084869,111.037415 398.921143,111.962776 
	C397.634003,112.986282 395.494293,113.409584 395.838104,115.828674 
	C407.685333,115.152870 413.116180,107.436546 410.240753,95.654182 
	C408.305969,87.726181 406.759888,86.836273 399.294708,89.662941 
	C396.976379,90.540779 394.697815,91.615578 392.569519,92.883118 
	C388.738800,95.164581 386.961151,98.103226 390.832123,101.998711 
M369.795013,105.976913 
	C370.288788,106.280525 371.290161,107.124741 371.244965,106.300873 
	C371.180847,105.132225 369.901611,104.085800 369.480255,102.869820 
	C368.551147,100.188293 365.902649,97.826378 367.599518,93.872803 
	C370.746643,98.393234 371.441956,103.902809 376.416595,106.608879 
	C374.568085,99.803833 369.042816,95.129265 367.471588,88.412521 
	C372.348907,92.170471 374.542908,97.951492 378.164886,102.644356 
	C380.660309,100.422226 377.461639,96.975609 380.174835,94.987953 
	C377.285583,93.534157 380.763885,90.387924 378.491821,88.730194 
	C375.633850,86.644951 372.566345,84.958748 369.059113,84.414642 
	C364.363464,83.686165 362.367737,85.224792 362.441071,89.981850 
	C362.512390,94.610542 362.894165,99.289436 363.744659,103.833046 
	C364.379272,107.223457 366.042816,110.372841 370.505096,111.786491 
	C369.679718,107.784119 365.335419,106.565819 365.774445,102.698425 
	C367.885468,102.942223 368.319519,104.638168 369.795013,105.976913 
M107.552727,374.001740 
	C110.151909,371.456451 110.254128,368.698700 108.405312,365.526093 
	C106.209671,367.575989 105.683334,371.647095 101.728722,370.604614 
	C98.703148,369.807007 100.713425,367.372864 101.013535,365.534271 
	C96.833351,368.022308 94.595871,371.781830 91.773140,374.997528 
	C90.866905,376.029907 89.885704,376.961639 90.745209,378.438263 
	C91.557274,379.833344 92.963280,379.785645 94.271423,379.582275 
	C98.897255,378.863098 103.260452,377.435638 107.552727,374.001740 
M410.300964,118.142014 
	C407.336884,116.027733 404.362061,115.666016 401.610962,117.787415 
	C402.091675,121.933159 406.125702,122.155380 408.499268,123.938873 
	C407.734009,125.673454 406.226562,124.111214 405.429260,125.338715 
	C409.925049,127.286186 414.385315,128.261505 419.515533,128.312012 
	C418.179077,123.070915 414.321228,120.999664 410.300964,118.142014 
M93.729607,352.388489 
	C95.472733,352.052368 97.215851,351.716217 98.278313,351.511353 
	C99.443008,345.955536 93.472092,347.763641 91.705063,344.753540 
	C92.640625,344.381378 93.286064,344.124634 94.663414,343.576721 
	C90.043213,342.548126 86.494293,339.488556 81.499741,341.642670 
	C84.324715,346.934479 88.297134,349.989563 93.729607,352.388489 
M90.229889,339.602325 
	C93.288284,337.558563 96.654137,338.224121 99.975113,338.496674 
	C97.807358,336.013855 97.948013,331.177368 92.394348,332.211060 
	C88.333771,332.966858 84.276886,333.077515 81.028313,336.792267 
	C83.653046,339.391022 87.010651,338.403717 90.229889,339.602325 
M407.231262,137.009323 
	C412.188629,136.503708 417.334656,136.405060 420.629578,131.263550 
	C414.363861,129.064423 408.874969,129.484329 403.270325,132.377274 
	C404.730316,133.822067 403.866089,136.520248 407.231262,137.009323 
M402.839539,171.827927 
	C402.529205,169.578995 400.856903,168.352570 398.851654,165.917816 
	C399.281738,173.895996 397.469177,181.090363 402.957001,186.867172 
	C402.999054,182.046906 405.614807,177.256882 402.839539,171.827927 
M344.295074,87.147072 
	C345.394958,89.175980 346.514984,91.184097 349.177338,91.904510 
	C350.418152,87.092194 345.697449,84.009415 345.563080,79.713326 
	C348.298218,79.386520 348.007172,82.960945 350.758575,82.792870 
	C349.297913,79.120552 346.641632,75.793442 343.307709,77.100357 
	C339.311340,78.666946 341.979797,82.423508 343.216858,85.222366 
	C343.417145,85.675507 343.688171,86.097397 344.295074,87.147072 
M100.303291,299.359039 
	C100.752151,301.415375 100.986137,303.554230 102.442612,305.453522 
	C104.907143,298.738037 104.259163,289.547424 100.798882,283.925446 
	C99.929047,289.065033 98.004440,293.711609 100.303291,299.359039 
M145.357925,387.583435 
	C145.817230,391.989563 148.979599,393.321228 152.557770,394.388275 
	C154.728790,388.495514 152.116974,381.840729 146.698318,379.330048 
	C147.801544,383.107391 148.849533,386.695526 149.909775,390.325653 
	C147.188049,390.648468 147.625031,387.471497 145.357925,387.583435 
M424.654694,168.851883 
	C423.637848,164.995132 419.849792,164.863159 416.606842,162.285065 
	C418.027924,167.007462 420.310181,169.070740 424.654694,168.851883 
M425.258392,163.197952 
	C422.399994,160.734955 419.764709,157.844376 414.476105,157.805283 
	C418.662415,160.264191 421.147003,163.690033 425.258392,163.197952 
M406.501404,171.890656 
	C406.844757,174.021042 405.695343,176.360611 407.345734,178.755524 
	C410.088074,174.627930 406.670013,171.360291 407.729828,167.795868 
	C407.302216,167.817917 406.874634,167.839966 406.447021,167.862015 
	C406.447021,168.975098 406.447021,170.088181 406.501404,171.890656 
M84.322922,311.810913 
	C85.173096,311.947327 86.031815,312.975830 87.116692,311.520172 
	C84.259689,309.604767 81.448120,307.719818 78.636551,305.834869 
	C78.474815,306.010162 78.313080,306.185425 78.151344,306.360687 
	C80.013138,308.091492 81.874931,309.822266 84.322922,311.810913 
M81.898750,304.556335 
	C82.943878,305.027374 83.623817,306.580963 85.354675,305.742645 
	C84.353279,302.800781 82.538353,301.377380 79.555603,301.257050 
	C79.282455,303.108368 80.608841,303.458466 81.898750,304.556335 
z"/>
<path fill="#111827" opacity="1.000000" stroke="none" 
	d="
M172.652634,221.999924 
	C172.657898,208.840408 172.668625,196.180893 172.668091,183.521393 
	C172.667664,173.185440 170.061722,170.369522 159.632278,169.376770 
	C158.534149,169.272247 157.239212,169.580719 156.636993,168.042984 
	C157.490387,165.953110 159.408813,166.714218 160.878052,166.711014 
	C188.195602,166.651459 215.513550,166.709518 242.830643,166.579330 
	C246.642700,166.561157 248.202682,167.760971 248.286972,171.671432 
	C248.451782,179.317490 247.750839,186.993622 248.967926,194.614990 
	C249.174683,195.909561 249.051056,197.318390 247.200821,198.010727 
	C244.401276,195.667816 245.624741,192.154465 245.094498,189.311630 
	C242.410522,174.921631 237.104645,169.951675 222.380554,169.438248 
	C214.561447,169.165588 206.723709,169.474442 198.896408,169.369308 
	C195.505966,169.323776 194.223984,170.608047 194.254013,174.094772 
	C194.393158,190.251144 194.433517,206.410553 194.254013,222.566040 
	C194.205414,226.941437 196.123001,227.908585 199.999268,227.847900 
	C210.490311,227.683624 220.985825,227.753510 231.478958,227.824646 
	C233.330154,227.837189 235.541199,227.068588 236.888474,229.371750 
	C236.044022,232.150330 233.676910,231.279358 231.921204,231.296951 
	C221.428482,231.402054 210.932556,231.478317 200.441437,231.319290 
	C196.025589,231.252365 194.169006,232.745346 194.246994,237.408646 
	C194.469803,250.730698 194.287155,264.059082 194.337479,277.384644 
	C194.368698,285.652130 197.720581,289.025421 206.082947,289.673065 
	C207.895676,289.813446 210.140182,288.853180 211.447296,291.130280 
	C208.752213,292.953888 160.586395,293.134644 156.564835,291.353729 
	C157.383606,288.824951 159.551132,289.833252 161.154495,289.691315 
	C168.963318,289.000092 172.603546,285.326508 172.637192,277.468140 
	C172.715668,259.145721 172.656586,240.822708 172.652634,221.999924 
z"/>
<path fill="#111827" opacity="1.000000" stroke="none" 
	d="
M328.480408,289.346497 
	C324.038116,288.881256 322.194214,285.899750 320.352478,282.869324 
	C318.503784,279.827454 317.229736,276.355408 313.363464,272.973785 
	C313.266846,279.227844 310.855896,284.406677 316.578522,288.785095 
	C311.526459,289.940125 307.014557,289.191010 302.067230,289.298920 
	C307.210144,283.932251 307.164551,258.246796 301.639832,253.461960 
	C310.197083,252.617859 318.065826,251.594727 325.352844,255.404510 
	C330.522675,258.107361 331.044037,265.996521 326.238281,269.980835 
	C322.876038,272.768341 323.188568,274.883972 325.370636,277.862122 
	C326.940063,280.004089 328.173676,282.389709 329.700165,284.566315 
	C330.850922,286.207245 332.184814,287.838684 334.537628,287.519440 
	C337.090759,287.172974 337.925781,285.154968 338.670593,283.051849 
	C341.666962,274.590851 344.655823,266.126862 347.735107,257.695953 
	C348.442230,255.759995 348.754456,253.128189 351.655121,253.245743 
	C354.204376,253.349075 354.513947,255.758118 355.197479,257.548950 
	C358.280701,265.626892 361.298676,273.729950 364.296234,281.840149 
	C365.202667,284.292572 366.075562,286.741760 368.829742,288.831482 
	C363.811371,289.701355 359.757385,289.505219 354.821381,288.929443 
	C360.615906,286.253326 357.376617,282.930298 356.270966,280.100830 
	C354.172821,274.731201 349.381927,277.499298 345.783661,277.317413 
	C341.255737,277.088623 341.916992,281.632294 340.759491,284.250305 
	C339.183899,287.813904 343.416626,286.992645 345.492920,289.366974 
	C339.360657,289.366974 334.142914,289.366974 328.480408,289.346497 
M315.452545,271.474792 
	C321.493683,269.921021 324.144196,261.537903 320.032715,256.988373 
	C318.084961,254.833084 313.481476,254.815414 313.376953,257.028229 
	C313.152313,261.784088 311.217957,266.851410 315.452545,271.474792 
M346.358551,274.597229 
	C348.618866,274.594086 350.949036,275.259674 353.376221,273.814209 
	C353.040894,269.378571 350.836121,265.551514 348.910187,261.411011 
	C348.151215,265.889496 343.790405,269.304382 346.358551,274.597229 
z"/>
<path fill="#111827" opacity="1.000000" stroke="none" 
	d="
M222.422607,255.116516 
	C232.275757,250.856491 240.491364,252.244843 244.846695,258.647308 
	C250.289566,266.648468 249.300903,280.216034 242.813751,286.545990 
	C236.925842,292.291260 224.616211,291.283203 219.318497,284.946655 
	C213.997696,278.582520 213.675278,260.072876 222.422607,255.116516 
M234.313873,287.678528 
	C237.411957,286.476288 238.867645,283.944214 239.667648,280.939697 
	C241.232880,275.061188 241.222794,269.090424 240.020065,263.199036 
	C238.827362,257.356659 235.443909,254.181320 231.435928,254.470322 
	C227.659210,254.742661 223.961365,258.828827 223.526779,264.143250 
	C223.122314,269.089539 223.024490,274.139862 223.549057,279.063721 
	C224.247726,285.621735 227.788483,288.385986 234.313873,287.678528 
z"/>
<path fill="#111827" opacity="1.000000" stroke="none" 
	d="
M260.179840,289.398926 
	C257.577972,289.399445 255.445221,289.399445 253.004532,289.399445 
	C257.316589,282.699646 256.795563,257.893890 251.981567,253.432648 
	C257.133759,253.432648 261.707550,253.432648 267.570831,253.432648 
	C262.415741,256.236969 263.303436,260.300415 263.279877,264.081268 
	C263.244751,269.728119 263.148132,275.378418 263.304932,281.020935 
	C263.379883,283.718414 262.026276,287.304474 266.935760,287.690918 
	C273.329010,288.194183 276.406647,286.794495 277.646515,282.260040 
	C277.973328,281.064789 277.572327,279.522247 279.750427,278.812531 
	C280.673309,281.573364 280.205170,284.286804 279.810120,286.951904 
	C279.446075,289.407684 277.480255,289.375610 275.596741,289.375305 
	C270.614166,289.374573 265.631561,289.389618 260.179840,289.398926 
z"/>
<path fill="#111827" opacity="1.000000" stroke="none" 
	d="
M286.962921,283.396667 
	C286.993347,275.993622 287.034424,269.021515 286.990662,262.049896 
	C286.971344,258.971863 287.733429,255.517212 283.117188,253.931793 
	C288.463684,252.562378 293.160522,252.935532 298.494019,253.021606 
	C292.819611,259.096802 292.661102,284.117188 297.889740,289.003967 
	C293.264862,289.709534 288.882233,289.496307 283.820526,289.004395 
	C285.481445,287.247375 287.099426,285.971313 286.962921,283.396667 
z"/>
</svg>